<svg xmlns="http://www.w3.org/2000/svg" version="1.1" xmlns:xlink="http://www.w3.org/1999/xlink" xmlns:svgjs="http://svgjs.dev/svgjs" width="128" height="128" viewBox="0 0 128 128"><g transform="matrix(0.8046875,0,0,0.8046875,12.333870967741937,24.258868405390885)"><svg viewBox="0 0 155 119" data-background-color="#293040" preserveAspectRatio="xMidYMid meet" height="98" width="128" xmlns="http://www.w3.org/2000/svg" xmlns:xlink="http://www.w3.org/1999/xlink"><g id="tight-bounds" transform="matrix(1,0,0,1,0.25,0.4699738903394177)"><svg viewBox="0 0 154.5 118.06005221932116" height="118.06005221932116" width="154.5"><g><svg viewBox="0 0 154.5 118.06005221932116" height="118.06005221932116" width="154.5"><g><svg viewBox="0 0 154.5 118.06005221932116" height="118.06005221932116" width="154.5"><g id="textblocktransform"><svg viewBox="0 0 154.5 118.06005221932116" height="118.06005221932116" width="154.5" id="textblock"><g><svg viewBox="0 0 154.5 118.06005221932116" height="118.06005221932116" width="154.5"><g transform="matrix(1,0,0,1,0,0)"><svg width="154.5" viewBox="0.05 -36.8 57.45 43.9" height="118.06005221932116" data-palette-color="#d5b263"><path d="M39.15 7.1L39.15 7.1Q32.55 7.1 26.6-8.65L26.6-8.65Q25.5-8.2 24.4-8 23.3-7.8 22.15-7.8L22.15-7.8Q21.3-7.8 20.55-7.95L20.55-7.95Q19.35-6.3 17.95-4.73 16.55-3.15 14.95-1.7L14.95-1.7Q12.5 0.55 9.85 1.73 7.2 2.9 4.3 2.9L4.3 2.9Q0.15 2.9 0.05-0.4L0.05-0.4Q0.05-1.8 0.95-2.9L0.95-2.9Q1.85-4.05 3.15-4.05L3.15-4.05Q4.1-4.05 4.75-3.25L4.75-3.25Q5.3-2.65 5.3-1.75L5.3-1.75Q5.3 0.7 3 0.7L3 0.7Q1.8 0.7 1.3-0.25L1.3-0.25Q1.55 1.55 4.2 1.55L4.2 1.55Q4.8 1.55 5.3 1.4L5.3 1.4Q11.15-0.1 15.85-7.8L15.85-7.8 16.9-9.6Q14.15-11.9 14.15-15.8L14.15-15.8Q14.15-18.25 15.55-20.1L15.55-20.1Q16.95-21.95 19.4-21.95L19.4-21.95Q21.35-21.95 22.8-20.5L22.8-20.5 24.85-24.45Q26.9-28.5 28.8-30.7L28.8-30.7Q31.1-33.45 34.05-34.5L34.05-34.5Q32.8-34.7 31.45-34.77 30.1-34.85 28.55-34.85L28.55-34.85Q19.35-34.85 15.5-32.6L15.5-32.6Q12.9-31.05 11.55-29.35L11.55-29.35Q10.1-27.5 10.1-26.1L10.1-26.1Q10.1-24.35 12.2-23.95L12.2-23.95Q12.9-23.8 13.6-23.8L13.6-23.8Q18.45-23.8 22.6-27.8L22.6-27.8Q22.8-28 23.05-27.9L23.05-27.9Q23.25-27.85 23.25-27.6L23.25-27.6Q23.25-27.45 23.2-27.4L23.2-27.4Q22.4-26.4 21.25-25.55 20.1-24.7 18.6-24L18.6-24Q15.6-22.6 12.8-22.6L12.8-22.6Q10.6-22.6 9-23.6L9-23.6Q7.1-24.75 7.1-26.8L7.1-26.8Q7.1-28.65 8.65-30.4L8.65-30.4Q11-33.15 17-34.5L17-34.5Q19.45-35.05 22.18-35.35 24.9-35.65 27.95-35.65L27.95-35.65Q30-35.65 31.73-35.52 33.45-35.4 34.85-35.15L34.85-35.15Q34.8-35.15 34.9-35.13 35-35.1 35.25-35.05L35.25-35.05Q36-35.25 36.65-35.35 37.3-35.45 37.8-35.45L37.8-35.45Q39.9-35.45 39.9-34.4L39.9-34.4Q39.9-33.25 38-33.25L38-33.25Q37.55-33.25 36.88-33.48 36.2-33.7 35.35-34.25L35.35-34.25Q31.55-32.9 28.8-25.25L28.8-25.25Q27.7-22.25 26.78-19.93 25.85-17.6 25.1-15.9L25.1-15.9Q25.65-14.6 26.33-13.2 27-11.8 27.8-10.25L27.8-10.25Q29.4-11.25 31.03-13.1 32.65-14.95 34.3-17.7L34.3-17.7Q35.75-20.1 37.15-22.55 38.55-25 40.05-27.45L40.05-27.45Q41.8-30.25 43.6-32.25 45.4-34.25 47.25-35.4L47.25-35.4Q49.4-36.8 52.35-36.8L52.35-36.8Q54.6-36.8 56-35.85L56-35.85Q57.5-34.9 57.5-33.05L57.5-33.05Q57.5-31.7 56.85-30.9L56.85-30.9Q56.25-30.1 55.3-30.1L55.3-30.1Q53.55-30.1 53.55-31.85L53.55-31.85Q53.55-33.7 55.3-33.7L55.3-33.7Q56.55-33.7 56.85-32.6L56.85-32.6Q56.95-33.6 55.95-34.3L55.95-34.3Q55.4-34.7 54.83-34.88 54.25-35.05 53.7-35.05L53.7-35.05Q49.45-35.05 44.85-29.55L44.85-29.55Q44.1-28.65 42.9-26.95 41.7-25.25 40.05-22.75L40.05-22.75Q36.7-17.75 34.65-15.25L34.65-15.25Q33-13.25 31.43-11.8 29.85-10.35 28.25-9.45L28.25-9.45Q29.85-6.6 31.4-4.28 32.95-1.95 34.5-0.15L34.5-0.15Q38.25 4.25 41 4.25L41 4.25Q42.95 4.25 43.9 2.45L43.9 2.45Q44.8 0.8 44.8-1.55L44.8-1.55Q44.8-4.05 44.05-5.9L44.05-5.9Q43.75-6.65 44.1-6.65L44.1-6.65Q44.3-6.65 44.5-6.2L44.5-6.2Q45.95-3.4 45.95-0.55L45.95-0.55Q45.95 2.4 44.05 4.7L44.05 4.7Q42.1 7.1 39.15 7.1ZM17.7-10.95L17.7-10.95Q18.65-12.55 19.78-14.65 20.9-16.75 22.2-19.3L22.2-19.3Q21.25-20.1 20.2-20.1L20.2-20.1Q18.4-20.1 17.35-18.4L17.35-18.4Q16.45-16.9 16.45-15L16.45-15Q16.45-12.65 17.7-10.95ZM22.6-8.75L22.6-8.75Q24.6-8.75 26.3-9.5L26.3-9.5 24.5-14.7Q22.95-11.5 21.2-8.85L21.2-8.85Q21.55-8.8 21.9-8.78 22.25-8.75 22.6-8.75Z" opacity="1" transform="matrix(1,0,0,1,0,0)" fill="#d5b263" class="wordmark-text-0" data-fill-palette-color="primary" id="text-0"></path></svg></g></svg></g></svg></g></svg></g><g></g></svg></g><defs></defs></svg><rect width="154.5" height="118.06005221932116" fill="none" stroke="none" visibility="hidden"></rect></g></svg></g></svg>